<?xml version="1.0" encoding="utf-8"?>
<!-- Generator: Adobe Illustrator 16.0.0, SVG Export Plug-In . SVG Version: 6.00 Build 0)  -->
<!DOCTYPE svg PUBLIC "-//W3C//DTD SVG 1.0//EN" "http://www.w3.org/TR/2001/REC-SVG-20010904/DTD/svg10.dtd">
<svg version="1.0" id="Layer_1" xmlns="http://www.w3.org/2000/svg" xmlns:xlink="http://www.w3.org/1999/xlink" x="0px" y="0px"
	 width="100px" height="100px" viewBox="0 0 100 100" enable-background="new 0 0 100 100" xml:space="preserve">
<path d="M73.815,59.967c-0.085,0.085-0.16,0.183-0.244,0.268L50,82.506L26.569,60.371c-0.131-0.131-0.241-0.273-0.371-0.41
	C16.387,63.001,10,67.852,10,73.333C10,82.539,27.91,90,50,90c22.097,0,40-7.461,40-16.667C90,67.852,83.62,63.001,73.815,59.967z"
	/>
<path d="M76.663,36.666C76.663,21.953,64.729,10,50,10c-14.72,0.006-26.667,11.939-26.667,26.673c0,7.356,2.985,14.023,7.813,18.848
	L50,73.333l18.857-17.819c4.824-4.817,7.81-11.484,7.81-18.848H76.663z M50,50c-7.366,0-13.333-5.964-13.333-13.334
	c0-7.363,5.967-13.333,13.333-13.333c7.363,0,13.333,5.97,13.333,13.333C63.333,44.036,57.363,50,50,50z"/>
</svg>
