<?xml version="1.0" encoding="utf-8"?>
<!-- Generator: Adobe Illustrator 16.0.0, SVG Export Plug-In . SVG Version: 6.00 Build 0)  -->
<!DOCTYPE svg PUBLIC "-//W3C//DTD SVG 1.0//EN" "http://www.w3.org/TR/2001/REC-SVG-20010904/DTD/svg10.dtd">
<svg version="1.0" id="Layer_1" xmlns="http://www.w3.org/2000/svg" xmlns:xlink="http://www.w3.org/1999/xlink" x="0px" y="0px"
	 width="100px" height="100px" viewBox="0 0 100 100" enable-background="new 0 0 100 100" xml:space="preserve">
<path d="M51.667,36.667h-3.334v6.666h3.334C53.506,43.333,55,41.839,55,40C55,38.157,53.506,36.667,51.667,36.667z"/>
<path d="M50,10c-18.401,0-33.333,14.915-33.333,33.333c0,9.199,3.73,17.533,9.766,23.568L50,90l23.574-23.105
	c6.035-6.028,9.766-14.362,9.759-23.567C83.333,24.932,68.411,10,50,10z M51.667,50h-3.334v10h-6.666V30h10c5.521,0,10,4.476,10,10
	C61.667,45.521,57.188,50,51.667,50z"/>
</svg>
