<?xml version="1.0" encoding="utf-8"?>
<!-- Generator: Adobe Illustrator 16.0.0, SVG Export Plug-In . SVG Version: 6.00 Build 0)  -->
<!DOCTYPE svg PUBLIC "-//W3C//DTD SVG 1.0//EN" "http://www.w3.org/TR/2001/REC-SVG-20010904/DTD/svg10.dtd">
<svg version="1.0" id="Layer_1" xmlns="http://www.w3.org/2000/svg" xmlns:xlink="http://www.w3.org/1999/xlink" x="0px" y="0px"
	 width="100px" height="100px" viewBox="0 0 100 100" enable-background="new 0 0 100 100" xml:space="preserve">
<path d="M27.663,67.435c-6.035-6.025-9.33-13.978-9.33-22.435c0-0.935,0.059-1.853,0.141-2.764C13.438,45.104,10,50.455,10,56.667
	c0,4.6,1.865,8.766,4.883,11.782L26.667,80l6.907-6.768L27.663,67.435z"/>
<path d="M81.526,42.236c0.078,0.911,0.141,1.826,0.141,2.757c0.006,8.454-3.285,16.41-9.271,22.393l-5.967,5.847L73.333,80
	L85.12,68.447c3.018-3.015,4.883-7.181,4.88-11.784C90,50.459,86.563,45.104,81.526,42.236z"/>
<path d="M50,20c-13.799,0-25,11.185-25,25c0,6.9,2.8,13.147,7.327,17.676L50,80l17.683-17.331C72.207,58.147,75.007,51.9,75,44.993
	C75,31.197,63.809,20,50,20z M50,60c-8.281,0-15-6.713-15-15c0-8.285,6.719-15,15-15c8.288,0,15,6.715,15,15
	C65,53.287,58.288,60,50,60z"/>
<path d="M56.667,45c0,3.682-2.985,6.666-6.667,6.666c-3.679,0-6.667-2.984-6.667-6.666s2.988-6.667,6.667-6.667
	C53.682,38.333,56.667,41.318,56.667,45z"/>
</svg>
