<?xml version="1.0" encoding="utf-8"?>
<!-- Generator: Adobe Illustrator 16.0.0, SVG Export Plug-In . SVG Version: 6.00 Build 0)  -->
<!DOCTYPE svg PUBLIC "-//W3C//DTD SVG 1.0//EN" "http://www.w3.org/TR/2001/REC-SVG-20010904/DTD/svg10.dtd">
<svg version="1.0" id="Layer_1" xmlns="http://www.w3.org/2000/svg" xmlns:xlink="http://www.w3.org/1999/xlink" x="0px" y="0px"
	 width="100px" height="100px" viewBox="0 0 100 100" enable-background="new 0 0 100 100" xml:space="preserve">
<path d="M50,10c-18.401,0-33.333,14.915-33.333,33.333c0,9.199,3.73,17.533,9.766,23.568L50,90l23.574-23.105
	c6.035-6.028,9.766-14.362,9.759-23.567C83.333,24.932,68.411,10,50,10z M61.784,50.403l-4.714,4.714L50,48.047l-7.07,7.073
	l-4.714-4.717l7.07-7.07l-7.07-7.07l4.714-4.717L50,38.62l7.07-7.07l4.714,4.713l-7.07,7.07L61.784,50.403z"/>
</svg>
