<?xml version="1.0" encoding="utf-8"?>
<!-- Generator: Adobe Illustrator 16.0.0, SVG Export Plug-In . SVG Version: 6.00 Build 0)  -->
<!DOCTYPE svg PUBLIC "-//W3C//DTD SVG 1.0//EN" "http://www.w3.org/TR/2001/REC-SVG-20010904/DTD/svg10.dtd">
<svg version="1.0" id="Layer_1" xmlns="http://www.w3.org/2000/svg" xmlns:xlink="http://www.w3.org/1999/xlink" x="0px" y="0px"
	 width="100px" height="100px" viewBox="0 0 100 100" enable-background="new 0 0 100 100" xml:space="preserve">
<polygon points="55.241,31.667 44.759,31.667 40.593,40 59.407,40 "/>
<circle cx="57.5" cy="46.667" r="2.5"/>
<circle cx="42.5" cy="46.667" r="2.5"/>
<path d="M50,10c-18.401,0-33.333,14.915-33.333,33.333c0,9.199,3.73,17.533,9.766,23.568L50,90l23.574-23.105
	c6.035-6.028,9.766-14.362,9.759-23.567C83.333,24.932,68.411,10,50,10z M68.333,40L65,41.667v15c0,0.918-0.749,1.666-1.667,1.666
	H60c-0.918,0-1.667-0.748-1.667-1.666v-3.334H41.667v3.334c0,0.918-0.749,1.666-1.667,1.666h-3.333
	c-0.918,0-1.667-0.748-1.667-1.666v-15L31.667,40v-3.333h5l4.254-8.51c0.41-0.82,1.494-1.49,2.412-1.49h13.334
	c0.918,0,2.002,0.67,2.412,1.49l4.254,8.51h5V40z"/>
</svg>
