<?xml version="1.0" encoding="utf-8"?>
<!-- Generator: Adobe Illustrator 16.0.0, SVG Export Plug-In . SVG Version: 6.00 Build 0)  -->
<!DOCTYPE svg PUBLIC "-//W3C//DTD SVG 1.0//EN" "http://www.w3.org/TR/2001/REC-SVG-20010904/DTD/svg10.dtd">
<svg version="1.0" id="Layer_1" xmlns="http://www.w3.org/2000/svg" xmlns:xlink="http://www.w3.org/1999/xlink" x="0px" y="0px"
	 width="100px" height="100px" viewBox="0 0 100 100" enable-background="new 0 0 100 100" xml:space="preserve">
<path d="M50,10c-18.401,0-33.333,14.915-33.333,33.333c0,9.199,3.73,17.533,9.766,23.568L50,90l23.574-23.105
	c6.035-6.028,9.766-14.362,9.759-23.567C83.333,24.932,68.411,10,50,10z M70,48.333l-16.667-2.776v8.333L60,58.333v3.334l-10-3.334
	l-10,3.334v-3.334l6.667-4.443v-8.333L30,48.333v-5l16.667-9.723V23.333C46.667,21.491,48.157,20,50,20s3.333,1.491,3.333,3.333
	V33.61L70,43.333V48.333z"/>
</svg>
