<?xml version="1.0" encoding="utf-8"?>
<!-- Generator: Adobe Illustrator 16.0.0, SVG Export Plug-In . SVG Version: 6.00 Build 0)  -->
<!DOCTYPE svg PUBLIC "-//W3C//DTD SVG 1.0//EN" "http://www.w3.org/TR/2001/REC-SVG-20010904/DTD/svg10.dtd">
<svg version="1.0" id="Layer_1" xmlns="http://www.w3.org/2000/svg" xmlns:xlink="http://www.w3.org/1999/xlink" x="0px" y="0px"
	 width="100px" height="100px" viewBox="0 0 100 100" enable-background="new 0 0 100 100" xml:space="preserve">
<path d="M80,83.333V61.992c-1.067,0.3-2.171,0.508-3.333,0.508c-2.367,0-4.672-0.684-6.667-1.96c-3.991,2.553-9.343,2.553-13.333,0
	c-3.991,2.546-9.343,2.546-13.334,0c-3.99,2.553-9.342,2.553-13.333,0c-1.995,1.276-4.304,1.96-6.667,1.96
	c-1.162,0-2.266-0.208-3.333-0.508v21.341H10V90h20V70h13.333v20H90v-6.667H80z M70,80H53.333V70H70V80z"/>
<path d="M76.667,20H70v3.327c0.01,5.338-2.07,10.364-5.856,14.144L50,51.338L35.905,37.52C32.08,33.698,30,28.675,30,23.333V20
	h-6.667l-7.5,30c0,4.134,3.366,7.5,7.5,7.5c1.823,0,3.594-0.69,4.994-1.953L30,54.036l1.673,1.511c2.793,2.52,7.194,2.52,9.987,0
	l1.673-1.511l1.674,1.511c2.793,2.52,7.197,2.52,9.983,0l1.677-1.511l1.676,1.511c2.787,2.52,7.194,2.52,9.98,0L70,54.036
	l1.677,1.511c1.393,1.263,3.167,1.953,4.99,1.953c4.134,0,7.5-3.366,7.5-7.5L76.667,20z"/>
<path d="M50,10c-7.356,0-13.333,5.967-13.333,13.333c0,3.682,1.49,7.016,3.906,9.428L50,42.002l9.434-9.248
	c2.409-2.405,3.906-5.739,3.899-9.427C63.333,15.974,57.363,10,50,10z M50,30c-3.679,0-6.667-2.985-6.667-6.667
	s2.988-6.666,6.667-6.666c3.682,0,6.667,2.984,6.667,6.666S53.682,30,50,30z"/>
</svg>
