<?xml version="1.0" encoding="utf-8"?>
<!-- Generator: Adobe Illustrator 16.0.0, SVG Export Plug-In . SVG Version: 6.00 Build 0)  -->
<!DOCTYPE svg PUBLIC "-//W3C//DTD SVG 1.0//EN" "http://www.w3.org/TR/2001/REC-SVG-20010904/DTD/svg10.dtd">
<svg version="1.0" id="Layer_1" xmlns="http://www.w3.org/2000/svg" xmlns:xlink="http://www.w3.org/1999/xlink" x="0px" y="0px"
	 width="100px" height="100px" viewBox="0 0 100 100" enable-background="new 0 0 100 100" xml:space="preserve">
<path d="M36.833,53.447c-2.23-2.861-3.5-6.318-3.5-10.114c0-9.189,7.478-16.666,16.667-16.666s16.667,7.474,16.667,16.66
	c0,3.727-1.273,7.22-3.51,10.12c5.639,1.188,11.049,3.154,16.13,5.811c2.637-4.834,4.05-10.273,4.046-15.931
	C83.333,24.951,68.382,10,50,10c-18.379,0-33.333,14.954-33.333,33.333c0,5.651,1.409,11.081,4.049,15.918
	C25.794,56.602,31.198,54.636,36.833,53.447z"/>
<path d="M50,72.051c-5.354,0-10.544,1.006-15.4,2.854L50,90l15.4-15.095C60.544,73.057,55.354,72.051,50,72.051z"/>
<path d="M53.333,58.877v-3.356c0-0.853,0.326-1.705,0.977-2.356l2.761-2.761c1.81-1.81,2.93-4.31,2.93-7.07c0-5.521-4.479-10-10-10
	s-10,4.479-10,10h6.667C46.667,41.491,48.157,40,50,40s3.333,1.491,3.333,3.333c0,0.922-0.371,1.755-0.977,2.357
	c0,0-2.76,2.764-2.76,2.767c-1.953,1.946-2.93,4.505-2.93,7.063v3.356C33.32,59.658,20.195,65.088,10,75.286L14.714,80
	C24.138,70.573,36.667,65.384,50,65.384c13.33,0,25.862,5.189,35.286,14.616L90,75.286C79.805,65.088,66.68,59.658,53.333,58.877z"
	/>
</svg>
